<svg xmlns="http://www.w3.org/2000/svg" viewBox="0 0 48 48" fill="none">
  <path  d="M14.2624 38.368L3.20001 25.6V22.4H44.8V25.6L33.6128 38.368H14.2624ZM12.7616 7.99997C12.7616 7.57562 12.593 7.16866 12.293 6.8686C11.9929 6.56854 11.586 6.39997 11.1616 6.39997C10.7373 6.39997 10.3303 6.56854 10.0302 6.8686C9.73018 7.16866 9.56161 7.57562 9.56161 7.99997V9.81437L3.81121 10.992C3.7026 11.0055 3.59793 11.0412 3.50367 11.0969C3.40941 11.1525 3.32758 11.2269 3.26323 11.3155C3.19887 11.404 3.15338 11.5048 3.12954 11.6116C3.10571 11.7184 3.10406 11.829 3.12468 11.9365C3.1453 12.044 3.18776 12.1461 3.24943 12.2366C3.3111 12.327 3.39067 12.4038 3.48322 12.4622C3.57577 12.5207 3.67932 12.5595 3.78748 12.5763C3.89563 12.5931 4.00609 12.5876 4.11201 12.56L9.56161 11.6736V13.4848L3.96161 13.6C3.74943 13.6 3.54595 13.6843 3.39592 13.8343C3.24589 13.9843 3.16161 14.1878 3.16161 14.4C3.16161 14.6121 3.24589 14.8156 3.39592 14.9657C3.54595 15.1157 3.74943 15.2 3.96161 15.2L9.56161 15.3152V19.1936H12.7616V7.99997ZM43.1616 12.8L19.1616 13.6416V9.58397L43.4624 6.14717C43.8727 6.06084 44.2327 5.81689 44.465 5.46781C44.6973 5.11873 44.7833 4.69242 44.7044 4.2806C44.6256 3.86878 44.3882 3.50437 44.0435 3.26577C43.6987 3.02717 43.274 2.93345 42.8608 3.00477L19.136 7.85597C19.0993 7.44886 18.907 7.0716 18.5991 6.80276C18.2912 6.53392 17.8915 6.39423 17.4831 6.41279C17.0748 6.43135 16.6894 6.60673 16.4071 6.90239C16.1249 7.19806 15.9676 7.59122 15.968 7.99997V8.72957L14.3872 9.04957V10.176L15.9648 9.91997V13.7504L14.3872 13.7824V15.2576L43.1616 16C43.586 16 43.9929 15.8314 44.293 15.5313C44.593 15.2313 44.7616 14.8243 44.7616 14.4C44.7616 13.9756 44.593 13.5687 44.293 13.2686C43.9929 12.9685 43.586 12.8 43.1616 12.8ZM32 41.6H16V43.4432H32V41.6Z"
          fill="white" />
</svg>
